<svg height='300px' width='300px'  fill="#FFFFFF" xmlns="http://www.w3.org/2000/svg" data-name="Layer 2" viewBox="0 0 100 100" x="0px" y="0px"><title>i-77</title><path d="M89.38,19.07H10.62A5.62,5.62,0,0,0,5,24.69V75.31a5.62,5.62,0,0,0,5.62,5.62H89.38A5.62,5.62,0,0,0,95,75.31V24.69a5.62,5.62,0,0,0-5.62-5.62ZM13.44,75.31a2.82,2.82,0,0,1-2.82-2.82v-45a2.82,2.82,0,0,1,2.82-2.82H86.56a2.82,2.82,0,0,1,2.82,2.82v45a2.82,2.82,0,0,1-2.82,2.82Z"></path><path d="M75.31,30.31a2.82,2.82,0,0,0-2.81,2.82V66.87a2.82,2.82,0,1,0,5.63,0V33.13a2.83,2.83,0,0,0-2.82-2.82Z"></path><path d="M33.13,41.56A8.44,8.44,0,1,0,41.56,50a8.44,8.44,0,0,0-8.43-8.44Z"></path><path d="M55.62,41.56A8.44,8.44,0,1,0,64.06,50a8.44,8.44,0,0,0-8.44-8.44Z"></path></svg>