<svg height='300px' width='300px'  fill="#FFFFFF" xmlns="http://www.w3.org/2000/svg" xmlns:xlink="http://www.w3.org/1999/xlink" version="1.1" x="0px" y="0px" viewBox="0 0 500 500" style="enable-background:new 0 0 500 500;" xml:space="preserve"><g><path d="M184.1,137.3c-6.2-6.2-16.3-6.2-22.5,0l-11.5,11.5L107,191.9c-6.2,6.2-6.2,16.3,0,22.5l0.2,0.2c6.2,6.2,16.3,6.2,22.5,0   l0,0c10-10,27.1-2.9,27.1,11.2V358c0,8.8,7.1,15.9,15.9,15.9h0.3c8.8,0,15.9-7.1,15.9-15.9V225.9c0-14.1,17.1-21.2,27.1-11.2l0,0   c6.2,6.2,16.3,6.2,22.5,0l0.2-0.2c6.2-6.2,6.2-16.3,0-22.5L184.1,137.3z"></path><path d="M393,285.6l-0.2-0.2c-6.2-6.2-16.3-6.2-22.5,0l0,0c-10,10-27.1,2.9-27.1-11.2V142c0-8.8-7.1-15.9-15.9-15.9H327   c-8.8,0-15.9,7.1-15.9,15.9v132.2c0,14.1-17.1,21.2-27.1,11.2l0,0c-6.2-6.2-16.3-6.2-22.5,0l-0.2,0.2c-6.2,6.2-6.2,16.3,0,22.5   l54.6,54.6c6.2,6.2,16.3,6.2,22.5,0l11.5-11.5l43.2-43.2C399.2,301.9,399.2,291.8,393,285.6z"></path></g></svg>