<svg height='300px' width='300px'  fill="#FFFFFF" xmlns="http://www.w3.org/2000/svg" xmlns:xlink="http://www.w3.org/1999/xlink" version="1.1" x="0px" y="0px" viewBox="0 0 100 100" style="enable-background:new 0 0 100 100;" xml:space="preserve"><g><path d="M20.254,18.517c0-5.672,4.597-10.269,10.269-10.269c5.671,0,10.269,4.597,10.269,10.269s-4.598,10.269-10.269,10.269   C24.852,28.785,20.254,24.188,20.254,18.517z M70.039,28.785c5.671,0,10.269-4.597,10.269-10.269S75.71,8.248,70.039,8.248   c-5.672,0-10.27,4.597-10.27,10.269S64.367,28.785,70.039,28.785z M93.258,3.772c0.014-2.07-1.654-3.76-3.725-3.772   c-0.008,0-0.016,0-0.023,0c-2.06,0-3.735,1.662-3.748,3.725l1.988,19.993L77.52,30.05H61.995l-6.302-3.9   c0.016-0.134,0.024-0.269,0.025-0.404L53.748,3.748C53.735,1.686,52.059,0,50,0c-2.07,0.013-3.761,1.679-3.748,3.748L44.279,26.15   l-6.273,3.899H22.48l-10.23-6.332l1.989-19.993C14.226,1.662,12.55,0,10.491,0c-0.008,0-0.016,0-0.024,0   C8.397,0.013,6.729,1.702,6.743,3.772L4.767,25.745c0.007,1.239,0.627,2.394,1.655,3.086l13.655,9.188v57.365   c0,2.549,2.085,4.615,4.657,4.615s4.657-2.066,4.657-4.615V68.51h1.704v26.875c0,2.549,2.084,4.615,4.657,4.615   c2.572,0,4.657-2.066,4.657-4.615V38.02L50,31.565l9.592,6.454v57.365c0,2.549,2.085,4.615,4.656,4.615   c2.572,0,4.658-2.066,4.658-4.615V68.51h1.703v26.875c0,2.549,2.085,4.615,4.656,4.615c2.572,0,4.658-2.066,4.658-4.615V38.02   l13.654-9.188c1.028-0.692,1.648-1.847,1.655-3.086L93.258,3.772z"></path></g></svg>